<svg width="24" height="25" viewBox="0 0 24 25" fill="none" xmlns="http://www.w3.org/2000/svg">
<path d="M11.1896 3.03709C10.9296 3.03709 10.6696 3.09709 10.4196 3.18709L3.05964 6.23709C2.5704 6.43744 2.18075 6.82387 1.97635 7.31143C1.77195 7.79899 1.76954 8.34776 1.96964 8.83709L6.92964 20.7871C7.07615 21.1495 7.32567 21.4611 7.64736 21.6833C7.96905 21.9054 8.34879 22.0284 8.73964 22.0371C8.99964 22.0371 9.26964 22.0071 9.52964 21.8871L16.8996 18.8371C17.2554 18.6861 17.5603 18.4363 17.7783 18.1173C17.9963 17.7982 18.1183 17.4233 18.1296 17.0371C18.1396 16.7871 18.0896 16.4971 17.9996 16.2371L12.9996 4.28709C12.8588 3.9208 12.6106 3.60553 12.2877 3.38252C11.9648 3.1595 11.5821 3.03911 11.1896 3.03709ZM14.6696 3.03709L18.1196 11.3871V5.03709C18.1196 4.50666 17.9089 3.99795 17.5339 3.62288C17.1588 3.24781 16.6501 3.03709 16.1196 3.03709M20.1296 4.57709V13.6071L22.5596 7.74709C22.6593 7.50486 22.7101 7.24534 22.7092 6.98342C22.7083 6.7215 22.6557 6.46234 22.5545 6.22079C22.4532 5.97923 22.3052 5.76005 22.1191 5.5758C21.9329 5.39155 21.7122 5.24586 21.4696 5.14709M11.4998 4.28709L16.8996 17.0371L8.49976 20.7871L2.99976 7.78709" fill="#7F7F8A"/>
</svg>
