<svg width="24" height="25" viewBox="0 0 24 25" fill="none" xmlns="http://www.w3.org/2000/svg">
<path d="M9.75 16.5371C9.75 15.7087 9.07843 15.0371 8.25 15.0371H6C5.17157 15.0371 4.5 15.7087 4.5 16.5371V18.7871C4.5 19.6155 5.17157 20.2871 6 20.2871H8.25C9.07843 20.2871 9.75 19.6155 9.75 18.7871V16.5371ZM19.5 16.5371C19.5 15.7087 18.8284 15.0371 18 15.0371H15.75C14.9216 15.0371 14.25 15.7087 14.25 16.5371V18.7871C14.25 19.6155 14.9216 20.2871 15.75 20.2871H18C18.8284 20.2871 19.5 19.6155 19.5 18.7871V16.5371ZM9.75 6.78709C9.75 5.95867 9.07843 5.28709 8.25 5.28709H6C5.17157 5.28709 4.5 5.95867 4.5 6.78709V9.03709C4.5 9.86552 5.17157 10.5371 6 10.5371H8.25C9.07843 10.5371 9.75 9.86552 9.75 9.03709V6.78709ZM19.5 6.78709C19.5 5.95867 18.8284 5.28709 18 5.28709H15.75C14.9216 5.28709 14.25 5.95867 14.25 6.78709V9.03709C14.25 9.86552 14.9216 10.5371 15.75 10.5371H18C18.8284 10.5371 19.5 9.86552 19.5 9.03709V6.78709ZM11.25 18.7871C11.25 20.4439 9.90685 21.7871 8.25 21.7871H6C4.34315 21.7871 3 20.4439 3 18.7871V16.5371C3 14.8802 4.34315 13.5371 6 13.5371H8.25C9.90685 13.5371 11.25 14.8802 11.25 16.5371V18.7871ZM21 18.7871C21 20.4439 19.6569 21.7871 18 21.7871H15.75C14.0931 21.7871 12.75 20.4439 12.75 18.7871V16.5371C12.75 14.8802 14.0931 13.5371 15.75 13.5371H18C19.6569 13.5371 21 14.8802 21 16.5371V18.7871ZM11.25 9.03709C11.25 10.6939 9.90685 12.0371 8.25 12.0371H6C4.34315 12.0371 3 10.6939 3 9.03709V6.78709C3 5.13024 4.34315 3.78709 6 3.78709H8.25C9.90685 3.78709 11.25 5.13024 11.25 6.78709V9.03709ZM21 9.03709C21 10.6939 19.6569 12.0371 18 12.0371H15.75C14.0931 12.0371 12.75 10.6939 12.75 9.03709V6.78709C12.75 5.13024 14.0931 3.78709 15.75 3.78709H18C19.6569 3.78709 21 5.13024 21 6.78709V9.03709Z" fill="currentColor"/>
</svg>
