<svg width="24" height="25" viewBox="0 0 24 25" fill="none" xmlns="http://www.w3.org/2000/svg">
<path d="M14 11.7871H10C9.46957 11.7871 8.96086 11.5764 8.58579 11.2013C8.21071 10.8262 8 10.3175 8 9.78709C8 9.25666 8.21071 8.74795 8.58579 8.37288C8.96086 7.99781 9.46957 7.78709 10 7.78709H15C15.2652 7.78709 15.5196 7.89245 15.7071 8.07999C15.8946 8.26752 16 8.52188 16 8.78709C16 9.05231 16.1054 9.30666 16.2929 9.4942C16.4804 9.68174 16.7348 9.78709 17 9.78709C17.2652 9.78709 17.5196 9.68174 17.7071 9.4942C17.8946 9.30666 18 9.05231 18 8.78709C18 7.99144 17.6839 7.22838 17.1213 6.66577C16.5587 6.10316 15.7956 5.78709 15 5.78709H13V3.78709C13 3.52188 12.8946 3.26752 12.7071 3.07999C12.5196 2.89245 12.2652 2.78709 12 2.78709C11.7348 2.78709 11.4804 2.89245 11.2929 3.07999C11.1054 3.26752 11 3.52188 11 3.78709V5.78709H10C8.93913 5.78709 7.92172 6.20852 7.17157 6.95867C6.42143 7.70881 6 8.72623 6 9.78709C6 10.848 6.42143 11.8654 7.17157 12.6155C7.92172 13.3657 8.93913 13.7871 10 13.7871H14C14.5304 13.7871 15.0391 13.9978 15.4142 14.3729C15.7893 14.748 16 15.2567 16 15.7871C16 16.3175 15.7893 16.8262 15.4142 17.2013C15.0391 17.5764 14.5304 17.7871 14 17.7871H9C8.73478 17.7871 8.48043 17.6817 8.29289 17.4942C8.10536 17.3067 8 17.0523 8 16.7871C8 16.5219 7.89464 16.2675 7.70711 16.08C7.51957 15.8925 7.26522 15.7871 7 15.7871C6.73478 15.7871 6.48043 15.8925 6.29289 16.08C6.10536 16.2675 6 16.5219 6 16.7871C6 17.5827 6.31607 18.3458 6.87868 18.9084C7.44129 19.471 8.20435 19.7871 9 19.7871H11V21.7871C11 22.0523 11.1054 22.3067 11.2929 22.4942C11.4804 22.6817 11.7348 22.7871 12 22.7871C12.2652 22.7871 12.5196 22.6817 12.7071 22.4942C12.8946 22.3067 13 22.0523 13 21.7871V19.7871H14C15.0609 19.7871 16.0783 19.3657 16.8284 18.6155C17.5786 17.8654 18 16.848 18 15.7871C18 14.7262 17.5786 13.7088 16.8284 12.9587C16.0783 12.2085 15.0609 11.7871 14 11.7871Z" fill="#7F7F8A"/>
</svg>
