<svg width="24" height="25" viewBox="0 0 24 25" fill="none" xmlns="http://www.w3.org/2000/svg">
<path d="M17.9992 12.6739C17.9886 12.1033 18.2063 11.4974 18.7023 11.089L19.7072 10.2628L19.7551 10.2149C19.8556 10.0961 19.8734 9.92418 19.7931 9.78525L18.4963 7.53915C18.4046 7.38041 18.2119 7.31081 18.0402 7.37509L16.8234 7.83115C16.2202 8.05713 15.586 7.94191 15.0969 7.64658C15.0325 7.60772 14.9674 7.56977 14.9015 7.53329C14.4337 7.27435 14.0382 6.82694 13.9035 6.24911L13.8801 6.13193L13.6672 4.85068C13.637 4.66986 13.4804 4.5372 13.297 4.5372H10.7033C10.52 4.5372 10.3633 4.66986 10.3332 4.85068L10.1193 6.13193C10.0134 6.76634 9.59772 7.25712 9.0988 7.53329C9.0329 7.56978 8.96786 7.60771 8.90349 7.64658C8.41437 7.94193 7.78016 8.05713 7.17693 7.83115L5.96013 7.37509C5.78848 7.31079 5.59574 7.38042 5.50408 7.53915L4.2072 9.78525C4.11554 9.944 4.15161 10.1463 4.29314 10.2628L5.29705 11.089C5.79316 11.4974 6.01172 12.1032 6.00115 12.6739C6.00045 12.7116 6.00017 12.7493 6.00017 12.7872C6.00017 12.8251 6.00045 12.8628 6.00115 12.9005C6.01106 13.4356 5.81975 14.0012 5.38689 14.4063L5.29705 14.4854L4.29314 15.3116C4.15161 15.4281 4.11554 15.6304 4.2072 15.7892L5.50408 18.0352L5.54216 18.0909C5.64285 18.2097 5.8099 18.2556 5.96013 18.1993L7.17693 17.7433L7.29021 17.7052C7.85881 17.5326 8.44488 17.6509 8.90349 17.9278C8.96786 17.9667 9.03289 18.0046 9.0988 18.0411C9.59772 18.3173 10.0134 18.8081 10.1193 19.4425L10.3332 20.7237C10.3633 20.9045 10.52 21.0372 10.7033 21.0372H13.297C13.4804 21.0372 13.637 20.9045 13.6672 20.7237L13.8801 19.4425C13.9859 18.808 14.4026 18.3173 14.9015 18.0411C14.9674 18.0046 15.0325 17.9667 15.0969 17.9278C15.586 17.6325 16.2202 17.5173 16.8234 17.7433L18.0402 18.1993L18.1056 18.2169C18.2588 18.2444 18.4161 18.1741 18.4963 18.0352L19.7931 15.7892C19.8848 15.6304 19.8487 15.4281 19.7072 15.3116L18.7023 14.4854C18.2063 14.077 17.9886 13.4711 17.9992 12.9005C17.9999 12.8628 18.0002 12.8251 18.0002 12.7872C18.0002 12.7494 17.9999 12.7116 17.9992 12.6739ZM14.2502 12.7872C14.2502 11.5447 13.2427 10.5373 12.0002 10.5372C10.7575 10.5372 9.75017 11.5446 9.75017 12.7872C9.75021 14.0298 10.7576 15.0372 12.0002 15.0372C13.2427 15.0371 14.2501 14.0297 14.2502 12.7872ZM15.7502 12.7872C15.7501 14.8581 14.0711 16.5371 12.0002 16.5372C9.92913 16.5372 8.25021 14.8582 8.25017 12.7872C8.25017 10.7161 9.9291 9.0372 12.0002 9.0372C14.0711 9.03735 15.7502 10.7162 15.7502 12.7872ZM19.4992 12.9288C19.4958 13.1156 19.5676 13.2541 19.6564 13.3272L20.6603 14.1534C21.368 14.736 21.5512 15.7454 21.0929 16.5392L19.7961 18.7852C19.3664 19.5294 18.4909 19.8804 17.676 19.6563L17.5138 19.6036L16.297 19.1476C16.1892 19.1072 16.0331 19.1149 15.8722 19.212C15.7919 19.2605 15.7104 19.3071 15.6281 19.3526C15.4636 19.4437 15.3794 19.5761 15.3605 19.6895L15.1467 20.9708C14.9958 21.8747 14.2135 22.5372 13.297 22.5372H10.7033C9.78684 22.5372 9.00451 21.8747 8.85369 20.9708L8.63982 19.6895C8.6209 19.5761 8.53675 19.4437 8.37224 19.3526C8.28999 19.3071 8.20842 19.2605 8.1281 19.212C8.00729 19.1391 7.88923 19.1165 7.79216 19.127L7.7033 19.1476L6.4865 19.6036C5.62818 19.9252 4.66256 19.579 4.20427 18.7852L2.9074 16.5392C2.44913 15.7454 2.63246 14.7369 3.34001 14.1544L4.34392 13.3272L4.40642 13.2599C4.4639 13.1813 4.50369 13.0688 4.50115 12.9288C4.50028 12.8818 4.50017 12.8344 4.50017 12.7872C4.50017 12.74 4.50028 12.6926 4.50115 12.6456C4.50369 12.5056 4.4639 12.3931 4.40642 12.3145L4.34392 12.2472L3.34001 11.421C2.63238 10.8384 2.44911 9.82902 2.9074 9.03525L4.20427 6.78915C4.66256 5.99538 5.62818 5.64924 6.4865 5.97079L7.7033 6.42685C7.81118 6.46716 7.96729 6.4595 8.1281 6.3624C8.20842 6.3139 8.28998 6.26731 8.37224 6.22177C8.53675 6.13071 8.6209 5.99835 8.63982 5.88486L8.85369 4.60361L8.88884 4.43759C9.1022 3.61968 9.8439 3.0372 10.7033 3.0372H13.297C14.2135 3.0372 14.9958 3.69967 15.1467 4.60361L15.3605 5.88486L15.3869 5.97275C15.4262 6.06192 15.5048 6.15351 15.6281 6.22177C15.7104 6.26731 15.7919 6.3139 15.8722 6.3624C16.0331 6.45951 16.1892 6.46719 16.297 6.42685L17.5138 5.97079C18.3722 5.64924 19.3378 5.99538 19.7961 6.78915L21.0929 9.03525C21.5226 9.7794 21.3887 10.713 20.7873 11.3067L20.6603 11.42L19.6564 12.2472C19.5676 12.3203 19.4958 12.4588 19.4992 12.6456C19.5001 12.6926 19.5002 12.74 19.5002 12.7872C19.5002 12.8344 19.5001 12.8818 19.4992 12.9288Z" fill="#7F7F8A"/>
</svg>
